<svg xmlns="http://www.w3.org/2000/svg" viewBox="0 0 1920 1080" width="1920" height="1080" role="img" aria-labelledby="t-D11">
<title id="t-D11">D11: How one agent&#x27;s failure spreads</title>
<defs><marker id="arr-flow" viewBox="0 0 16 16" markerWidth="16" markerHeight="16" refX="12" refY="8" orient="auto-start-reverse" markerUnits="userSpaceOnUse"><path d="M3 2.5 L12.5 8 L3 13.5" fill="none" stroke="#FFFFFF99" stroke-width="2.6" stroke-linecap="round" stroke-linejoin="round"/></marker><marker id="arr-teal" viewBox="0 0 16 16" markerWidth="16" markerHeight="16" refX="12" refY="8" orient="auto-start-reverse" markerUnits="userSpaceOnUse"><path d="M3 2.5 L12.5 8 L3 13.5" fill="none" stroke="#00D4AA" stroke-width="2.6" stroke-linecap="round" stroke-linejoin="round"/></marker><marker id="arr-red" viewBox="0 0 16 16" markerWidth="16" markerHeight="16" refX="12" refY="8" orient="auto-start-reverse" markerUnits="userSpaceOnUse"><path d="M3 2.5 L12.5 8 L3 13.5" fill="none" stroke="#FF4B4B" stroke-width="2.6" stroke-linecap="round" stroke-linejoin="round"/></marker><marker id="arr-amber" viewBox="0 0 16 16" markerWidth="16" markerHeight="16" refX="12" refY="8" orient="auto-start-reverse" markerUnits="userSpaceOnUse"><path d="M3 2.5 L12.5 8 L3 13.5" fill="none" stroke="#FFB020" stroke-width="2.6" stroke-linecap="round" stroke-linejoin="round"/></marker><marker id="arr-gray" viewBox="0 0 16 16" markerWidth="16" markerHeight="16" refX="12" refY="8" orient="auto-start-reverse" markerUnits="userSpaceOnUse"><path d="M3 2.5 L12.5 8 L3 13.5" fill="none" stroke="#64748B" stroke-width="2.6" stroke-linecap="round" stroke-linejoin="round"/></marker><marker id="arr-white" viewBox="0 0 16 16" markerWidth="16" markerHeight="16" refX="12" refY="8" orient="auto-start-reverse" markerUnits="userSpaceOnUse"><path d="M3 2.5 L12.5 8 L3 13.5" fill="none" stroke="#FFFFFF" stroke-width="2.6" stroke-linecap="round" stroke-linejoin="round"/></marker></defs>
<rect width="1920" height="1080" fill="#0A1628"/>
<g id="diagram-title"><rect x="96" y="70" width="8" height="52" rx="2" fill="#00D4AA"/><text x="124" y="112" font-family="Inter, 'Inter var', 'Helvetica Neue', Arial, sans-serif" font-size="40" font-weight="700" fill="#FFFFFF">How one agent&#x27;s failure spreads</text><text x="1824" y="1054" font-family="Inter, 'Inter var', 'Helvetica Neue', Arial, sans-serif" font-size="16" font-weight="500" fill="#64748B" text-anchor="end" letter-spacing="0.5">Course 2 · Agent Testing &amp; Evaluation · D11 · build 2/5: agent b</text></g>
<g id="build-1">
<rect x="1504" y="440" width="320" height="150" rx="8" fill="#1A2742" stroke="#FF4B4B" stroke-width="2"/>
<g transform="translate(1526.0 493.0) scale(0.917)"><rect x="9" y="15" width="30" height="24" rx="7" fill="none" stroke="#FF4B4B" stroke-width="3" stroke-linecap="round" stroke-linejoin="round"/><circle cx="19" cy="27" r="3.2" fill="#FF4B4B"/><circle cx="29" cy="27" r="3.2" fill="#FF4B4B"/><path d="M24 15 V8" fill="none" stroke="#FF4B4B" stroke-width="3" stroke-linecap="round" stroke-linejoin="round"/><circle cx="24" cy="6.5" r="2.6" fill="#FF4B4B"/><path d="M5 24 V31 M43 24 V31" fill="none" stroke="#FF4B4B" stroke-width="3" stroke-linecap="round" stroke-linejoin="round"/></g>
<text x="1586" y="509.7" font-family="Inter, 'Inter var', 'Helvetica Neue', Arial, sans-serif" font-size="24" font-weight="600" fill="#FFFFFF" text-anchor="start">Agent C fails</text>
<text x="1586" y="537.8" font-family="Inter, 'Inter var', 'Helvetica Neue', Arial, sans-serif" font-size="18" font-weight="400" fill="#CBD5E1" text-anchor="start">tool times out</text>
<g><circle cx="1818" cy="446" r="21" fill="#FF4B4B33"/><circle cx="1818" cy="446" r="15" fill="#FF4B4B"/><path d="M1811.7 439.7 L1824.3 452.3 M1824.3 439.7 L1811.7 452.3" stroke="#0A1628" stroke-width="3.2" stroke-linecap="round"/></g>
</g>
<g id="build-2">
<rect x="1084" y="440" width="320" height="150" rx="8" fill="#1A2742" stroke="#FFB020" stroke-width="2"/>
<g transform="translate(1106.0 493.0) scale(0.917)"><rect x="9" y="15" width="30" height="24" rx="7" fill="none" stroke="#FFB020" stroke-width="3" stroke-linecap="round" stroke-linejoin="round"/><circle cx="19" cy="27" r="3.2" fill="#FFB020"/><circle cx="29" cy="27" r="3.2" fill="#FFB020"/><path d="M24 15 V8" fill="none" stroke="#FFB020" stroke-width="3" stroke-linecap="round" stroke-linejoin="round"/><circle cx="24" cy="6.5" r="2.6" fill="#FFB020"/><path d="M5 24 V31 M43 24 V31" fill="none" stroke="#FFB020" stroke-width="3" stroke-linecap="round" stroke-linejoin="round"/></g>
<text x="1166" y="509.7" font-family="Inter, 'Inter var', 'Helvetica Neue', Arial, sans-serif" font-size="24" font-weight="600" fill="#FFFFFF" text-anchor="start">Agent B</text>
<text x="1166" y="537.8" font-family="Inter, 'Inter var', 'Helvetica Neue', Arial, sans-serif" font-size="18" font-weight="400" fill="#CBD5E1" text-anchor="start">passes the error on</text>
<path d="M1498 515.0 L1410 515.0" fill="none" stroke="#FFB020" stroke-width="3" stroke-linecap="round" stroke-linejoin="round" marker-end="url(#arr-amber)"/>
</g>
</svg>
