<svg xmlns="http://www.w3.org/2000/svg" viewBox="0 0 1920 1080" width="1920" height="1080" role="img" aria-labelledby="t-D5">
<title id="t-D5">D5: Rooms, participants, tracks, dispatch</title>
<defs><marker id="arr-flow" viewBox="0 0 16 16" markerWidth="16" markerHeight="16" refX="12" refY="8" orient="auto-start-reverse" markerUnits="userSpaceOnUse"><path d="M3 2.5 L12.5 8 L3 13.5" fill="none" stroke="#FFFFFF99" stroke-width="2.6" stroke-linecap="round" stroke-linejoin="round"/></marker><marker id="arr-teal" viewBox="0 0 16 16" markerWidth="16" markerHeight="16" refX="12" refY="8" orient="auto-start-reverse" markerUnits="userSpaceOnUse"><path d="M3 2.5 L12.5 8 L3 13.5" fill="none" stroke="#00D4AA" stroke-width="2.6" stroke-linecap="round" stroke-linejoin="round"/></marker><marker id="arr-red" viewBox="0 0 16 16" markerWidth="16" markerHeight="16" refX="12" refY="8" orient="auto-start-reverse" markerUnits="userSpaceOnUse"><path d="M3 2.5 L12.5 8 L3 13.5" fill="none" stroke="#FF4B4B" stroke-width="2.6" stroke-linecap="round" stroke-linejoin="round"/></marker><marker id="arr-amber" viewBox="0 0 16 16" markerWidth="16" markerHeight="16" refX="12" refY="8" orient="auto-start-reverse" markerUnits="userSpaceOnUse"><path d="M3 2.5 L12.5 8 L3 13.5" fill="none" stroke="#FFB020" stroke-width="2.6" stroke-linecap="round" stroke-linejoin="round"/></marker><marker id="arr-gray" viewBox="0 0 16 16" markerWidth="16" markerHeight="16" refX="12" refY="8" orient="auto-start-reverse" markerUnits="userSpaceOnUse"><path d="M3 2.5 L12.5 8 L3 13.5" fill="none" stroke="#64748B" stroke-width="2.6" stroke-linecap="round" stroke-linejoin="round"/></marker><marker id="arr-white" viewBox="0 0 16 16" markerWidth="16" markerHeight="16" refX="12" refY="8" orient="auto-start-reverse" markerUnits="userSpaceOnUse"><path d="M3 2.5 L12.5 8 L3 13.5" fill="none" stroke="#FFFFFF" stroke-width="2.6" stroke-linecap="round" stroke-linejoin="round"/></marker></defs>
<rect width="1920" height="1080" fill="#0A1628"/>
<g id="diagram-title"><rect x="96" y="70" width="8" height="52" rx="2" fill="#00D4AA"/><text x="124" y="112" font-family="Inter, 'Inter var', 'Helvetica Neue', Arial, sans-serif" font-size="40" font-weight="700" fill="#FFFFFF">Rooms, participants, tracks, dispatch</text><text x="1824" y="1054" font-family="Inter, 'Inter var', 'Helvetica Neue', Arial, sans-serif" font-size="16" font-weight="500" fill="#64748B" text-anchor="end" letter-spacing="0.5">Course 3 · Voice AI Agents · D5 · build 1/4: SFU, room and participants</text></g>
<g id="build-1">
<rect x="720" y="240" width="520" height="740" rx="8" fill="#1A2742" stroke="#94A3B8" stroke-width="2"/>
<text x="980.0" y="284" font-family="Inter, 'Inter var', 'Helvetica Neue', Arial, sans-serif" font-size="26" font-weight="600" fill="#FFFFFF" text-anchor="middle">LiveKit server (SFU)</text>
<rect x="750" y="316" width="460" height="634" rx="8" fill="#0F1E35" stroke="#94A3B8" stroke-width="2" stroke-dasharray="8 4"/>
<text x="774" y="352" font-family="Inter, 'Inter var', 'Helvetica Neue', Arial, sans-serif" font-size="22" font-weight="600" fill="#CBD5E1" text-anchor="start">Room</text>
<rect x="1500" y="330" width="324" height="130" rx="8" fill="#1A2742" stroke="#FFFFFF" stroke-width="2"/>
<g transform="translate(1522.0 373.0) scale(0.917)"><circle cx="24" cy="15" r="8" fill="none" stroke="#FFFFFF" stroke-width="3" stroke-linecap="round" stroke-linejoin="round"/><path d="M8 43 C8 31 15 27 24 27 C33 27 40 31 40 43" fill="none" stroke="#FFFFFF" stroke-width="3" stroke-linecap="round" stroke-linejoin="round"/></g>
<text x="1582" y="402.7" font-family="Inter, 'Inter var', 'Helvetica Neue', Arial, sans-serif" font-size="22" font-weight="600" fill="#FFFFFF" text-anchor="start">Caller&#x27;s browser</text>
<rect x="790" y="365" width="380" height="60" rx="8" fill="#1A2742" stroke="#FFFFFF" stroke-width="2"/>
<text x="980.0" y="402.0" font-family="Inter, 'Inter var', 'Helvetica Neue', Arial, sans-serif" font-size="20" font-weight="500" fill="#FFFFFF" text-anchor="middle">participant: caller</text>
<path d="M1496 375 L1174 375" fill="none" stroke="#FFFFFF99" stroke-width="2" stroke-linecap="round" stroke-linejoin="round" marker-end="url(#arr-flow)"/>
<path d="M1174 415 L1496 415" fill="none" stroke="#FFFFFF99" stroke-width="2" stroke-linecap="round" stroke-linejoin="round" marker-end="url(#arr-flow)"/>
<rect x="1500" y="550" width="324" height="130" rx="8" fill="#1A2742" stroke="#FFFFFF" stroke-width="2"/>
<g transform="translate(1522.0 593.0) scale(0.917)"><rect x="14" y="4" width="20" height="40" rx="4" fill="none" stroke="#FFFFFF" stroke-width="3" stroke-linecap="round" stroke-linejoin="round"/><path d="M21 38 H27" fill="none" stroke="#FFFFFF" stroke-width="3" stroke-linecap="round" stroke-linejoin="round"/></g>
<text x="1582" y="622.6999999999999" font-family="Inter, 'Inter var', 'Helvetica Neue', Arial, sans-serif" font-size="22" font-weight="600" fill="#FFFFFF" text-anchor="start">Phone via SIP</text>
<rect x="790" y="585" width="380" height="60" rx="8" fill="#1A2742" stroke="#FFFFFF" stroke-width="2"/>
<text x="980.0" y="622.0" font-family="Inter, 'Inter var', 'Helvetica Neue', Arial, sans-serif" font-size="20" font-weight="500" fill="#FFFFFF" text-anchor="middle">participant: SIP caller</text>
<path d="M1496 595 L1174 595" fill="none" stroke="#FFFFFF99" stroke-width="2" stroke-linecap="round" stroke-linejoin="round" marker-end="url(#arr-flow)"/>
<path d="M1174 635 L1496 635" fill="none" stroke="#FFFFFF99" stroke-width="2" stroke-linecap="round" stroke-linejoin="round" marker-end="url(#arr-flow)"/>
<rect x="1500" y="770" width="324" height="130" rx="8" fill="#1A2742" stroke="#00D4AA" stroke-width="2"/>
<g transform="translate(1522.0 813.0) scale(0.917)"><rect x="9" y="15" width="30" height="24" rx="7" fill="none" stroke="#00D4AA" stroke-width="3" stroke-linecap="round" stroke-linejoin="round"/><circle cx="19" cy="27" r="3.2" fill="#00D4AA"/><circle cx="29" cy="27" r="3.2" fill="#00D4AA"/><path d="M24 15 V8" fill="none" stroke="#00D4AA" stroke-width="3" stroke-linecap="round" stroke-linejoin="round"/><circle cx="24" cy="6.5" r="2.6" fill="#00D4AA"/><path d="M5 24 V31 M43 24 V31" fill="none" stroke="#00D4AA" stroke-width="3" stroke-linecap="round" stroke-linejoin="round"/></g>
<text x="1582" y="842.6999999999999" font-family="Inter, 'Inter var', 'Helvetica Neue', Arial, sans-serif" font-size="22" font-weight="600" fill="#FFFFFF" text-anchor="start">Riley (agent)</text>
<rect x="790" y="805" width="380" height="60" rx="8" fill="#1A2742" stroke="#00D4AA" stroke-width="2"/>
<text x="980.0" y="842.0" font-family="Inter, 'Inter var', 'Helvetica Neue', Arial, sans-serif" font-size="20" font-weight="500" fill="#FFFFFF" text-anchor="middle">participant: Riley</text>
<path d="M1496 815 L1174 815" fill="none" stroke="#FFFFFF99" stroke-width="2" stroke-linecap="round" stroke-linejoin="round" marker-end="url(#arr-flow)"/>
<path d="M1174 855 L1496 855" fill="none" stroke="#FFFFFF99" stroke-width="2" stroke-linecap="round" stroke-linejoin="round" marker-end="url(#arr-flow)"/>
<text x="1376" y="296" font-family="Inter, 'Inter var', 'Helvetica Neue', Arial, sans-serif" font-size="18" font-weight="400" fill="#94A3B8" text-anchor="middle">publish / subscribe</text>
</g>
</svg>
