<svg xmlns="http://www.w3.org/2000/svg" viewBox="0 0 1920 1080" width="1920" height="1080" role="img" aria-labelledby="t-D10">
<title id="t-D10">D10: Where PII leaks in telemetry</title>
<defs><marker id="arr-flow" viewBox="0 0 16 16" markerWidth="16" markerHeight="16" refX="12" refY="8" orient="auto-start-reverse" markerUnits="userSpaceOnUse"><path d="M3 2.5 L12.5 8 L3 13.5" fill="none" stroke="#FFFFFF99" stroke-width="2.6" stroke-linecap="round" stroke-linejoin="round"/></marker><marker id="arr-teal" viewBox="0 0 16 16" markerWidth="16" markerHeight="16" refX="12" refY="8" orient="auto-start-reverse" markerUnits="userSpaceOnUse"><path d="M3 2.5 L12.5 8 L3 13.5" fill="none" stroke="#00D4AA" stroke-width="2.6" stroke-linecap="round" stroke-linejoin="round"/></marker><marker id="arr-red" viewBox="0 0 16 16" markerWidth="16" markerHeight="16" refX="12" refY="8" orient="auto-start-reverse" markerUnits="userSpaceOnUse"><path d="M3 2.5 L12.5 8 L3 13.5" fill="none" stroke="#FF4B4B" stroke-width="2.6" stroke-linecap="round" stroke-linejoin="round"/></marker><marker id="arr-amber" viewBox="0 0 16 16" markerWidth="16" markerHeight="16" refX="12" refY="8" orient="auto-start-reverse" markerUnits="userSpaceOnUse"><path d="M3 2.5 L12.5 8 L3 13.5" fill="none" stroke="#FFB020" stroke-width="2.6" stroke-linecap="round" stroke-linejoin="round"/></marker><marker id="arr-gray" viewBox="0 0 16 16" markerWidth="16" markerHeight="16" refX="12" refY="8" orient="auto-start-reverse" markerUnits="userSpaceOnUse"><path d="M3 2.5 L12.5 8 L3 13.5" fill="none" stroke="#64748B" stroke-width="2.6" stroke-linecap="round" stroke-linejoin="round"/></marker><marker id="arr-white" viewBox="0 0 16 16" markerWidth="16" markerHeight="16" refX="12" refY="8" orient="auto-start-reverse" markerUnits="userSpaceOnUse"><path d="M3 2.5 L12.5 8 L3 13.5" fill="none" stroke="#FFFFFF" stroke-width="2.6" stroke-linecap="round" stroke-linejoin="round"/></marker></defs>
<rect width="1920" height="1080" fill="#0A1628"/>
<g id="diagram-title"><rect x="96" y="70" width="8" height="52" rx="2" fill="#00D4AA"/><text x="124" y="112" font-family="Inter, 'Inter var', 'Helvetica Neue', Arial, sans-serif" font-size="40" font-weight="700" fill="#FFFFFF">Where PII leaks in telemetry</text><text x="1824" y="1054" font-family="Inter, 'Inter var', 'Helvetica Neue', Arial, sans-serif" font-size="16" font-weight="500" fill="#64748B" text-anchor="end" letter-spacing="0.5">Course 4 · Agent Observability · D10 · build 2/2: shields</text></g>
<g id="build-1">
<rect x="96" y="300" width="300" height="130" rx="8" fill="#1A2742" stroke="#FFFFFF" stroke-width="2"/>
<g transform="translate(118.0 343.0) scale(0.917)"><circle cx="24" cy="15" r="8" fill="none" stroke="#FFFFFF" stroke-width="3" stroke-linecap="round" stroke-linejoin="round"/><path d="M8 43 C8 31 15 27 24 27 C33 27 40 31 40 43" fill="none" stroke="#FFFFFF" stroke-width="3" stroke-linecap="round" stroke-linejoin="round"/></g>
<text x="178" y="373.40000000000003" font-family="Inter, 'Inter var', 'Helvetica Neue', Arial, sans-serif" font-size="24" font-weight="600" fill="#FFFFFF" text-anchor="start">Prompt</text>
<rect x="150.0" y="444" width="47.0" height="28.8" rx="14.4" fill="#0F1E35" stroke="#FF4B4B" stroke-width="2"/>
<text x="173.4921875" y="464.15999999999997" font-family="Inter, 'Inter var', 'Helvetica Neue', Arial, sans-serif" font-size="16" font-weight="500" fill="#FF4B4B" text-anchor="middle">PII</text>
<rect x="500" y="300" width="300" height="130" rx="8" fill="#1A2742" stroke="#FFFFFF" stroke-width="2"/>
<g transform="translate(522.0 343.0) scale(0.917)"><path d="M37.5 9.5 A9 9 0 1 0 38.5 22.5" fill="none" stroke="#FFFFFF" stroke-width="3" stroke-linecap="round" stroke-linejoin="round" stroke-width="4"/><path d="M26 22 L9 39" fill="none" stroke="#FFFFFF" stroke-width="3" stroke-linecap="round" stroke-linejoin="round" stroke-width="6"/></g>
<text x="582" y="373.40000000000003" font-family="Inter, 'Inter var', 'Helvetica Neue', Arial, sans-serif" font-size="24" font-weight="600" fill="#FFFFFF" text-anchor="start">Tool result</text>
<rect x="554.0" y="444" width="156.9" height="28.8" rx="14.4" fill="#0F1E35" stroke="#FF4B4B" stroke-width="2"/>
<text x="632.4453125" y="464.15999999999997" font-family="Inter, 'Inter var', 'Helvetica Neue', Arial, sans-serif" font-size="16" font-weight="500" fill="#FF4B4B" text-anchor="middle">employee record</text>
<rect x="904" y="300" width="300" height="130" rx="8" fill="#1A2742" stroke="#00D4AA" stroke-width="2"/>
<g transform="translate(926.0 343.0) scale(0.917)"><rect x="5" y="9" width="22" height="7" rx="2" fill="#FFB020"/><rect x="13" y="20.5" width="24" height="7" rx="2" fill="#FFB020"/><rect x="22" y="32" width="20" height="7" rx="2" fill="#FFB020"/></g>
<text x="986" y="373.40000000000003" font-family="Inter, 'Inter var', 'Helvetica Neue', Arial, sans-serif" font-size="24" font-weight="600" fill="#FFFFFF" text-anchor="start">Span</text>
<rect x="1308" y="300" width="300" height="130" rx="8" fill="#1A2742" stroke="#94A3B8" stroke-width="2"/>
<text x="1458.0" y="358.7" font-family="Inter, 'Inter var', 'Helvetica Neue', Arial, sans-serif" font-size="24" font-weight="600" fill="#FFFFFF" text-anchor="middle">Exporter</text>
<text x="1458.0" y="386.8" font-family="Inter, 'Inter var', 'Helvetica Neue', Arial, sans-serif" font-size="18" font-weight="400" fill="#CBD5E1" text-anchor="middle">SDK / Collector</text>
<path d="M400 365.0 L496 365.0" fill="none" stroke="#FFFFFF99" stroke-width="2" stroke-linecap="round" stroke-linejoin="round" marker-end="url(#arr-flow)"/>
<path d="M804 365.0 L900 365.0" fill="none" stroke="#FFFFFF99" stroke-width="2" stroke-linecap="round" stroke-linejoin="round" marker-end="url(#arr-flow)"/>
<path d="M1208 365.0 L1304 365.0" fill="none" stroke="#FFFFFF99" stroke-width="2" stroke-linecap="round" stroke-linejoin="round" marker-end="url(#arr-flow)"/>
<path d="M1612 365.0 L1728.0 365.0 Q1740 365.0 1740.0 377.0 L1740.0 713.0 Q1740 725.0 1728.0 725.0 L1612 725.0" fill="none" stroke="#FFFFFF99" stroke-width="2" stroke-linecap="round" stroke-linejoin="round" marker-end="url(#arr-flow)"/>
<rect x="1308" y="660" width="300" height="130" rx="8" fill="#1A2742" stroke="#94A3B8" stroke-width="2"/>
<g transform="translate(1330.0 703.0) scale(0.917)"><ellipse cx="24" cy="11" rx="15" ry="5.5" fill="none" stroke="#94A3B8" stroke-width="3" stroke-linecap="round" stroke-linejoin="round"/><path d="M9 11 V37 A15 5.5 0 0 0 39 37 V11" fill="none" stroke="#94A3B8" stroke-width="3" stroke-linecap="round" stroke-linejoin="round"/><path d="M9 24 A15 5.5 0 0 0 39 24" fill="none" stroke="#94A3B8" stroke-width="3" stroke-linecap="round" stroke-linejoin="round"/></g>
<text x="1390" y="719.6999999999999" font-family="Inter, 'Inter var', 'Helvetica Neue', Arial, sans-serif" font-size="24" font-weight="600" fill="#FFFFFF" text-anchor="start">Backend</text>
<text x="1390" y="747.8" font-family="Inter, 'Inter var', 'Helvetica Neue', Arial, sans-serif" font-size="18" font-weight="400" fill="#CBD5E1" text-anchor="start">Langfuse</text>
<rect x="904" y="660" width="300" height="130" rx="8" fill="#1A2742" stroke="#FFFFFF" stroke-width="2"/>
<g transform="translate(926.0 703.0) scale(0.917)"><rect x="10" y="9" width="28" height="35" rx="4" fill="none" stroke="#00D4AA" stroke-width="3" stroke-linecap="round" stroke-linejoin="round"/><rect x="18" y="5" width="12" height="7" rx="2" fill="none" stroke="#00D4AA" stroke-width="3" stroke-linecap="round" stroke-linejoin="round"/><path d="M17 28 L22 33 L32 21" fill="none" stroke="#00D4AA" stroke-width="3" stroke-linecap="round" stroke-linejoin="round"/></g>
<text x="986" y="719.6999999999999" font-family="Inter, 'Inter var', 'Helvetica Neue', Arial, sans-serif" font-size="24" font-weight="600" fill="#FFFFFF" text-anchor="start">Judge</text>
<text x="986" y="747.8" font-family="Inter, 'Inter var', 'Helvetica Neue', Arial, sans-serif" font-size="18" font-weight="400" fill="#CBD5E1" text-anchor="start">sees everything</text>
<rect x="500" y="660" width="300" height="130" rx="8" fill="#1A2742" stroke="#FFFFFF" stroke-width="2"/>
<g transform="translate(522.0 703.0) scale(0.917)"><rect x="7" y="27" width="8" height="15" rx="1.5" fill="#00D4AA"/><rect x="20" y="17" width="8" height="25" rx="1.5" fill="#00D4AA"/><rect x="33" y="8" width="8" height="34" rx="1.5" fill="#00D4AA"/></g>
<text x="582" y="719.6999999999999" font-family="Inter, 'Inter var', 'Helvetica Neue', Arial, sans-serif" font-size="24" font-weight="600" fill="#FFFFFF" text-anchor="start">Dashboards</text>
<text x="582" y="747.8" font-family="Inter, 'Inter var', 'Helvetica Neue', Arial, sans-serif" font-size="18" font-weight="400" fill="#CBD5E1" text-anchor="start">shared widely</text>
<path d="M1304 725.0 L1208 725.0" fill="none" stroke="#FFFFFF99" stroke-width="2" stroke-linecap="round" stroke-linejoin="round" marker-end="url(#arr-flow)"/>
<path d="M900 725.0 L804 725.0" fill="none" stroke="#FFFFFF99" stroke-width="2" stroke-linecap="round" stroke-linejoin="round" marker-end="url(#arr-flow)"/>
</g>
<g id="build-2">
<g transform="translate(1031.0 237.0) scale(0.958)"><path d="M24 5 L40 11 V23 C40 33 33 40 24 44 C15 40 8 33 8 23 V11 Z" fill="none" stroke="#00D4AA" stroke-width="3" stroke-linecap="round" stroke-linejoin="round"/><path d="M17 24 L22 29 L31 19" fill="none" stroke="#00D4AA" stroke-width="3" stroke-linecap="round" stroke-linejoin="round"/></g>
<text x="1088" y="268" font-family="'JetBrains Mono', 'Fira Code', Menlo, Consolas, monospace" font-size="18" font-weight="600" fill="#00D4AA" text-anchor="start">SDK mask=</text>
<g transform="translate(1435.0 237.0) scale(0.958)"><path d="M24 5 L40 11 V23 C40 33 33 40 24 44 C15 40 8 33 8 23 V11 Z" fill="none" stroke="#00D4AA" stroke-width="3" stroke-linecap="round" stroke-linejoin="round"/><path d="M17 24 L22 29 L31 19" fill="none" stroke="#00D4AA" stroke-width="3" stroke-linecap="round" stroke-linejoin="round"/></g>
<text x="1492" y="268" font-family="Inter, 'Inter var', 'Helvetica Neue', Arial, sans-serif" font-size="18" font-weight="600" fill="#00D4AA" text-anchor="start">attributes processor</text>
<g transform="translate(1435.0 807.0) scale(0.958)"><path d="M24 5 L40 11 V23 C40 33 33 40 24 44 C15 40 8 33 8 23 V11 Z" fill="none" stroke="#00D4AA" stroke-width="3" stroke-linecap="round" stroke-linejoin="round"/><path d="M17 24 L22 29 L31 19" fill="none" stroke="#00D4AA" stroke-width="3" stroke-linecap="round" stroke-linejoin="round"/></g>
<text x="1492" y="838" font-family="Inter, 'Inter var', 'Helvetica Neue', Arial, sans-serif" font-size="18" font-weight="600" fill="#00D4AA" text-anchor="start">retention</text>
<g transform="translate(627.0 807.0) scale(0.958)"><path d="M24 5 L40 11 V23 C40 33 33 40 24 44 C15 40 8 33 8 23 V11 Z" fill="none" stroke="#00D4AA" stroke-width="3" stroke-linecap="round" stroke-linejoin="round"/><path d="M17 24 L22 29 L31 19" fill="none" stroke="#00D4AA" stroke-width="3" stroke-linecap="round" stroke-linejoin="round"/></g>
<text x="684" y="838" font-family="Inter, 'Inter var', 'Helvetica Neue', Arial, sans-serif" font-size="18" font-weight="600" fill="#00D4AA" text-anchor="start">RBAC</text>
<g><circle cx="1054" cy="660" r="21" fill="#FF4B4B33"/><circle cx="1054" cy="660" r="15" fill="#FF4B4B"/><path d="M1047.7 653.7 L1060.3 666.3 M1060.3 653.7 L1047.7 666.3" stroke="#0A1628" stroke-width="3.2" stroke-linecap="round"/></g>
<text x="1054" y="838" font-family="Inter, 'Inter var', 'Helvetica Neue', Arial, sans-serif" font-size="18" font-weight="400" fill="#94A3B8" text-anchor="middle">judge: send it masked data</text>
</g>
</svg>
